<svg xmlns="http://www.w3.org/2000/svg" viewBox="0 0 1600 900" role="img" aria-label="가지마켓 거래 장면">
  <defs>
    <linearGradient id="sky" x1="0" y1="0" x2="1" y2="1">
      <stop offset="0" stop-color="#eef4e4"/>
      <stop offset="1" stop-color="#d8e4ca"/>
    </linearGradient>
  </defs>
  <rect width="1600" height="900" fill="url(#sky)"/>
  <rect x="0" y="610" width="1600" height="290" fill="#bccaa7"/>
  <rect x="190" y="260" width="1220" height="410" rx="28" fill="#f9fbf5" stroke="#7f9656" stroke-width="8"/>
  <path d="M230 260h1140l-90-120H320z" fill="#5f7f2d"/>
  <path d="M320 140h960l-82-72H402z" fill="#34491d"/>
  <rect x="280" y="360" width="330" height="220" rx="20" fill="#e6edd8"/>
  <rect x="645" y="360" width="330" height="220" rx="20" fill="#e6edd8"/>
  <rect x="1010" y="360" width="330" height="220" rx="20" fill="#e6edd8"/>
  <circle cx="390" cy="445" r="48" fill="#7b5aa6"/>
  <path d="M390 387c38 25 61 64 68 116-51-7-90-30-116-68 10-22 26-38 48-48z" fill="#5f7f2d"/>
  <rect x="720" y="415" width="180" height="95" rx="16" fill="#ffffff" stroke="#9dad81" stroke-width="6"/>
  <path d="M735 492h150" stroke="#a6402d" stroke-width="18" stroke-linecap="round"/>
  <circle cx="1110" cy="445" r="46" fill="#a6402d"/>
  <rect x="1175" y="402" width="86" height="86" rx="12" fill="#ffffff" stroke="#9dad81" stroke-width="6"/>
  <path d="M170 705c118-54 246-54 384 0s276 54 414 0 270-54 396 0" fill="none" stroke="#334819" stroke-opacity=".28" stroke-width="18" stroke-linecap="round"/>
</svg>
